<svg id="Camada_1" data-name="Camada 1" xmlns="http://www.w3.org/2000/svg" viewBox="0 0 600 500"><defs><style>.cls-1{fill:#e30613;}.cls-1,.cls-2{fill-rule:evenodd;}.cls-2{fill:#0069a7;}</style></defs><title>Logo UFRGS formato SVG</title><path class="cls-1" d="M277.95,171.61c8.47-46.69-25.5-30.6-40.45-72.65C223.42,59.47,262.15,11.19,311.44,31,277.85,36.37,270.52,83,284.32,96.88c28.16,28.43,25.79,63.67-6.38,74.73Z"/><path class="cls-2" d="M569.62,435.77h-8.75v34.95h19.22V463H569.62Zm-34.26,0h-8.85V456c0,5.13.66,7.9,2.38,10.36,2.38,3.26,6.95,5.33,12,5.33s8.85-1.68,11.71-5c2.38-2.86,3.33-5.53,3.33-10.66V435.77h-8.85v19c0,3.65-.1,4.74-.86,6a5.89,5.89,0,0,1-10,.2c-.76-1.48-.86-2.17-.86-6.22Zm-13.61,2A23.5,23.5,0,0,0,511.09,435c-6.76,0-11.42,4.74-11.42,11.85a8.58,8.58,0,0,0,2.57,6.71c1.14,1.08,2.66,1.78,6.57,3s5.23,2.07,5.23,4-1.71,3.36-4.28,3.36-5-1.09-7.8-3.55l-3.62,7.31a20,20,0,0,0,11.61,4,15,15,0,0,0,8.37-2.37c3.24-2.17,4.76-5.43,4.76-10.17,0-5-2.38-7.9-8.28-9.67l-1.9-.69a9.5,9.5,0,0,1-1.81-.59c-1.52-.69-2.28-1.68-2.28-2.67,0-1.68,1.62-3.06,3.71-3.06a8,8,0,0,1,5.71,2.47Zm-57.38-3.06a19.26,19.26,0,0,0-11.8,4A19,19,0,0,0,445.72,453c0,11,7.9,19.05,18.65,19.05a18.34,18.34,0,0,0,18.56-18.76,18.63,18.63,0,0,0-4.38-12.24,17.82,17.82,0,0,0-14.18-6.42Zm-50.15,36h12.94c8.85,0,16.46-8,16.46-17.47s-7.61-17.47-16.46-17.47H414.22Zm-16.84-27.15v-7.8H378.25v34.95h19.13V463H387v-6h9.8v-7.7H387v-5.73Zm-52.24,27.15h12.94c8.95,0,16.56-8,16.56-17.47s-7.61-17.47-16.56-17.47H345.13Zm-38.45,0h8.75V449.39l16,21.32h8.85V435.77h-8.85v21.32l-16-21.32h-8.75Zm-13.23-6,2.09,6H305l-12.75-34.95h-9.52l-12.94,34.95H279l2.28-6Zm-32.74-8.29a7.33,7.33,0,0,0,4.09-1.87,10.38,10.38,0,0,0,3.24-8,11.43,11.43,0,0,0-2.76-7.6c-2-2.17-4.47-3.16-8.28-3.16H243.4v34.95h8.76V457.39l8.28,13.33h10.94Zm-38.16-5v7h7.23a7.22,7.22,0,0,1-1.24,3.55,6.71,6.71,0,0,1-5.71,2.47,7.83,7.83,0,0,1-5.71-2.17,13,13,0,0,1-3.24-8.79c0-6.22,3.71-10.86,8.66-10.86,3.43,0,5.81,1.78,7.33,5.53l8.28-3.55c-3.14-6.71-8-9.87-15.23-9.87-10.75,0-18.27,7.6-18.27,18.76,0,11,7.42,18.66,18,18.66,7.14,0,12.47-3.46,15.32-9.58,1.33-2.86,1.9-5.82,2-11.15Zm-51.77-16.68a19.26,19.26,0,0,0-11.8,4A19,19,0,0,0,152.14,453c0,11,7.9,19.05,18.65,19.05a18.33,18.33,0,0,0,18.56-18.76,18.55,18.55,0,0,0-4.28-12.24,18,18,0,0,0-14.27-6.42Zm-22.08,1.09h-8.85v34.95h8.85ZM127.78,456.4a8,8,0,0,0,4.09-1.87,10.66,10.66,0,0,0,3.14-8,11.43,11.43,0,0,0-2.76-7.6c-2-2.17-4.38-3.16-8.28-3.16H110.37v34.95h8.75V457.39l8.28,13.33h10.94ZM75,434.68a19.53,19.53,0,0,0-11.9,4A18.91,18.91,0,0,0,56.31,453c0,11,7.8,19.05,18.65,19.05a18.33,18.33,0,0,0,18.56-18.76,18.63,18.63,0,0,0-4.38-12.24A17.82,17.82,0,0,0,75,434.68Zm-50.15,36H37.76c8.85,0,16.46-8,16.46-17.47s-7.61-17.47-16.46-17.47H24.81Zm439.56-27.15a9.83,9.83,0,1,1-9.52,9.77,9.64,9.64,0,0,1,9.52-9.77ZM423,463V443.57h2.09c3.14,0,5.33.79,7.14,2.86a10.93,10.93,0,0,1,0,13.62,8.65,8.65,0,0,1-7.14,3Zm-69,0V443.57h2c3.24,0,5.33.79,7.23,2.86a10.94,10.94,0,0,1,0,13.62,8.84,8.84,0,0,1-7.23,3Zm-63-5.23h-7.23l3.71-11.25Zm-38.83-6.32v-8.68h1.62a6.26,6.26,0,0,1,3.71,1,4.36,4.36,0,0,1,1.62,3.36,4.9,4.9,0,0,1-1.62,3.46,6.3,6.3,0,0,1-3.71.89Zm-81.36-7.9a9.83,9.83,0,1,1-9.42,9.77,9.64,9.64,0,0,1,9.42-9.77Zm-51.67,7.9v-8.68h1.62a6.26,6.26,0,0,1,3.71,1,4.36,4.36,0,0,1,1.62,3.36,4.9,4.9,0,0,1-1.62,3.46,6.3,6.3,0,0,1-3.71.89ZM75,443.57a9.83,9.83,0,1,1-9.52,9.77A9.64,9.64,0,0,1,75,443.57ZM33.57,463V443.57h2c3.24,0,5.33.79,7.14,2.86a10.61,10.61,0,0,1,0,13.62c-1.81,2.07-3.9,3-7.14,3Z"/><path class="cls-2" d="M569.33,388h-8.85v34.95H579.8v-7.8H569.33ZM546,416.91l2.09,6h9.33L544.78,388h-9.52l-12.85,34.95h9.14l2.38-6Zm-34.07-8.29a8.42,8.42,0,0,0,4.19-1.87,10.73,10.73,0,0,0,3.24-8,11.33,11.33,0,0,0-2.85-7.6c-2-2.17-4.38-3.16-8.28-3.16H494.63v34.95h8.75V409.61l8.28,13.33h10.94Zm-22.08-12.93V388H470.75v34.95h19.13v-7.8H479.5v-5.92h9.8v-7.8h-9.8v-5.73Zm-53.48,27.25h12.94c8.85,0,16.56-8.09,16.56-17.47S458.19,388,449.33,388H436.39Zm-4.76-27.25V388H412.5v34.95h19.13v-7.8H421.26v-5.92h9.8v-7.8h-9.8v-5.73Zm-23.6,0V388H388.71v34.95h8.85V409.21h9.61v-7.8h-9.61v-5.73Zm-38.64,0V388H350.27v34.95H369.4v-7.8H359v-5.92h9.8v-7.8H359v-5.73Zm-53.48,27.25h12.95c8.85,0,16.56-8.09,16.56-17.47S337.71,388,328.86,388H315.91Zm-14.56-6,2.09,6h9.42L300.21,388H290.7l-12.94,34.95H287l2.28-6Zm-53.39,6h12.94c8.95,0,16.56-8.09,16.56-17.47S269.86,388,260.91,388H248ZM241.69,388h-8.75v34.95h8.75Zm-14.75,2a24,24,0,0,0-10.75-2.86c-6.76,0-11.32,4.84-11.32,11.85,0,3.06.76,5.23,2.47,6.81,1.24,1.09,2.76,1.78,6.57,3,4,1.28,5.23,2.07,5.23,3.95,0,2.07-1.71,3.46-4.19,3.46-2.66,0-5.14-1.09-7.8-3.55l-3.71,7.31a20,20,0,0,0,11.7,3.95,14.71,14.71,0,0,0,8.37-2.37c3.14-2.07,4.76-5.33,4.76-10.07,0-5-2.47-7.9-8.28-9.67l-1.9-.69a11.73,11.73,0,0,1-1.9-.59q-2.28-1.18-2.28-2.66a3.48,3.48,0,0,1,3.71-3.16,8.84,8.84,0,0,1,5.8,2.47Zm-35.59,18.65a8.42,8.42,0,0,0,4.19-1.87,10.73,10.73,0,0,0,3.24-8,11.34,11.34,0,0,0-2.85-7.6c-2-2.17-4.47-3.16-8.28-3.16H174v34.95h8.75V409.61l8.28,13.33h10.85Zm-22.08-12.93V388H150.14v34.95h19.13v-7.8H158.9v-5.92h9.8v-7.8h-9.8v-5.73ZM121.59,388h-9.52l14.18,34.95H133L147.38,388h-9.52l-8.09,21.23Zm-12.28,0h-8.75v34.95h8.75ZM60.69,422.93h8.76V401.61l16.08,21.32h8.75V388H85.53v21.32L69.45,388H60.69ZM33.85,388H25.1v20.24c0,5,.67,7.9,2.38,10.27,2.38,3.26,6.95,5.33,11.9,5.33s8.85-1.68,11.8-4.93c2.38-2.86,3.24-5.63,3.24-10.66V388H45.65v19c0,3.65-.1,4.64-1,6a5.76,5.76,0,0,1-9.9.1c-.86-1.48-1-2.17-1-6.12Zm509.79,22h-7.33L540,398.75Zm-40.26-6.32V395H505a6.86,6.86,0,0,1,3.81.89,5.1,5.1,0,0,1,1.62,3.36,4.91,4.91,0,0,1-1.62,3.45,6.8,6.8,0,0,1-3.81,1Zm-58.24,11.45V395.69h2.09c3.24,0,5.33.89,7.14,3a10.95,10.95,0,0,1,0,13.62c-1.81,2.07-3.9,2.86-7.14,2.86Zm-120.48,0V395.69h2.09c3.14,0,5.33.89,7.14,3a10.93,10.93,0,0,1,0,13.62c-1.81,2.07-4,2.86-7.14,2.86ZM299,410h-7.33l3.81-11.25Zm-42.25,5.14V395.69h2.09a8.65,8.65,0,0,1,7.14,3,10.61,10.61,0,0,1,0,13.62c-1.81,2.07-4,2.86-7.14,2.86Zm-73.94-11.45V395h1.62a6.86,6.86,0,0,1,3.81.89,5.09,5.09,0,0,1,1.62,3.36,4.91,4.91,0,0,1-1.62,3.45,6.79,6.79,0,0,1-3.81,1Z"/><path class="cls-2" d="M486.07,327.77c14.08,7.21,29.22,11.35,44.06,11.35,28.93,0,49.48-18.16,49.48-42.74,0-17.87-10-29.71-28.17-33.86L538,259.66c-4.47-1.09-6.56-2.86-6.56-5.43,0-4.25,3.43-6.42,9.71-6.42,7.14,0,14.08,2.47,23.41,9l11.33-30.4c-12.37-7.11-22.74-10.27-35.5-10.27-29.22,0-50.53,18.16-50.53,43.14C489.87,276,500.53,287.8,518,291l12.09,2.56c5.14.69,7.52,2.86,7.52,6,0,4.34-4.47,7.21-10.28,7.21-8,0-17.6-3.55-24.07-9l-4.57-3.56Z"/><path class="cls-2" d="M412.79,266.67V294.9h18.84c-2,6.42-8.28,10.36-16.46,10.36-12.75,0-21.7-10.66-21.7-25.66,0-15.7,9.61-27.15,23.13-27.15,7.23,0,11.61,2.47,15.8,9l38.92-15.1c-3.52-6.71-6.57-10.27-13.51-16-12-9.67-26.17-14.21-43-14.21-37.87,0-63.28,25-63.28,61.7,0,36,25.41,61.3,62.62,61.3a67.32,67.32,0,0,0,48.53-20.63c10.95-11.75,14.75-25,14.46-51.82Z"/><path class="cls-2" d="M242.07,337h40.54v-38.1l.67-.49a32.16,32.16,0,0,0,1.43,3.65L301.17,337h48.25l-25.79-40.28c-1.43-2.17-2.76-3.26-6.19-5.43v-1c7.8-2.57,12-4.64,15-8.29,4.57-5.33,7.33-13.92,7.33-23.2,0-14.91-6.28-26.36-18.65-34.25-7.52-4.94-15.13-6.71-27.5-6.71H242.07Zm40.54-66V250.58h7.23c5.52,0,9.33,4.24,9.33,10.36s-4.09,10-11,10Z"/><polygon class="cls-2" points="150.9 337.05 192.49 337.05 192.49 295.3 223.13 295.3 223.13 263.9 192.49 263.9 192.49 251.76 227.32 251.76 227.32 217.8 150.9 217.8 150.9 337.05"/><path class="cls-2" d="M25.29,217.8v75.32c0,13.62,5.14,26.06,13.8,33.27,9.61,8.19,23.7,12.73,40.25,12.73,32.35,0,52-18.86,52-49.26V217.8H90V286c0,11.45-3.14,15.3-11.7,15.3-7.52,0-11.7-4.93-11.7-15.3V217.8Z"/><path class="cls-2" d="M265.67,198.76a6.25,6.25,0,0,1,6.09,6.32,6.1,6.1,0,0,1-6.09,6.22,6,6,0,0,1-6-6.22,6.17,6.17,0,0,1,6-6.32Z"/><path class="cls-2" d="M299.74,198.76a6.25,6.25,0,0,1,6.09,6.32,6.09,6.09,0,1,1-12.18,0,6.25,6.25,0,0,1,6.09-6.32Z"/><path class="cls-2" d="M282.8,198.76a6.23,6.23,0,0,1,6,6.32,6.09,6.09,0,1,1-12.18,0,6.27,6.27,0,0,1,6.19-6.32Z"/><path class="cls-2" d="M373.59,174.86H191.82q90.93,35.24,181.76,0Z"/><path class="cls-1" d="M329.9,61.93c-6.38,2.86-18.84,15.4.48,32.18,22.74,19.94,10.56,83.41-45,77.49,26.55-4.74,34.73-42.44,20.55-59-18.65-21.62-3.52-52.71,24-50.64Z"/><path class="cls-1" d="M273.76,170.82c-18.46-26.65-20.84-7.7-46.44-21.72-19.89-10.86-29.69-49.26,2.85-69.89C220.56,98.85,223,121,245,131.43c19.7,9.38,31.88,13.72,28.74,39.39Z"/></svg>